<svg fill="none" height="24" viewBox="0 0 24 24" width="24" xmlns="http://www.w3.org/2000/svg"><g stroke="#fff" stroke-linecap="round" stroke-linejoin="round" stroke-width="2"><path d="m3 10.3346v-3.99996c0-1.47334 1.19333-2.66667 2.66667-2.66667h2.60133c.80933 0 1.57333.36667 2.08.99733l.804 1.00267h7.1813c1.4734 0 2.6667 1.19333 2.6667 2.66667v1.99996"/><path d="m3.60257 10.332h16.79463c1.3147 0 2.2707 1.2454 1.932 2.5147l-1.468 5.5053c-.3106 1.168-1.368 1.98-2.576 1.98h-12.56929c-1.208 0-2.26534-.812-2.576-1.98l-1.468-5.5053c-.33867-1.2693.61866-2.5147 1.932-2.5147z"/></g></svg>