<svg fill="none" height="24" viewBox="0 0 24 24" width="24" xmlns="http://www.w3.org/2000/svg"><path clip-rule="evenodd" d="m12 2c-5.523 0-10 4.477-10 10 0 4.418 2.865 8.166 6.839 9.489.5.092.682-.211.682-.472 0-.235-.009-.935-.013-1.805-2.782.605-3.369-1.247-3.369-1.247-.454-1.153-1.11-1.455-1.11-1.455-.908-.626.069-.613.069-.613 1.003.07 1.531 1.029 1.531 1.029.892 1.529 2.341 1.087 2.91.836.092-.657.35-1.098.636-1.343-2.221-.248-4.555-1.11-4.555-4.942 0-1.091.39-1.984 1.029-2.683-.104-.248-.446-1.267.098-2.64 0 0 .84-.265 2.75 1.025.798-.218 1.653-.328 2.503-.332.85.004 1.705.114 2.505.332 1.908-1.29 2.746-1.025 2.746-1.025.546 1.373.204 2.392.1 2.64.64.699 1.027 1.592 1.027 2.683 0 3.842-2.338 4.691-4.565 4.934.359.304.679.907.679 1.83 0 1.325-.012 2.39-.012 2.776 0 .263.179.569.687.471 3.971-1.325 6.833-5.072 6.833-9.488 0-5.523-4.477-10-10-10z" fill="#fff" fill-rule="evenodd"/></svg>