<svg fill="none" height="24" viewBox="0 0 24 24" width="24" xmlns="http://www.w3.org/2000/svg"><path d="m4.38556 5.85969c-.02369-.67176.079-1.32008.50161-1.88247.0119.28901.04739.5663.16588.84359.23303-1.07402.77807-1.92543 1.67068-2.55812-.07504.23043-.13823.46086-.11849.69129.34361-.28901.74253-.69519 1.75362-.88656.5806-.10937 1.17304-.07805 1.66274.03911 1.5206.36321 2.4093 1.33959 2.7529 2.82368.2094.90219.0277 1.75749-.3278 2.59328-.2054.48429-.4739.95295-.8176 1.37085-.079-.07424-.154-.14848-.229-.21872-1.69047-1.59346-1.0585-.98419-1.47719-1.46066-.04345-.0469-.0395-.08583-.00403-.14069.32782-.52724.46602-1.10136.39492-1.71843-.0434-.38275-.1698-.73815-.44626-1.02325-.57269-.59755-1.54825-.58583-2.11304.02337-.45025.48818-.55689 1.0701-.43051 1.7028.00788.0507.01575.10539 0 .15228-.13428.53507-.18168 1.07793-.09873 1.62471.00402.01956.00402.04292.00402.06247 0 .01212-.00402.01956-.00787.04292-.86102-.42961-1.42186-1.10526-1.70623-2.03868-.32782.69519-.43841 1.38646-.26068 2.11288-.61614-.59364-.84129-1.33941-.86894-2.15565zm18.54734 4.81161c-.4581-.453-.9874-.79674-1.5838-1.03886-.5055-.20309-1.0269-.30855-1.5759-.2773-.3949.02337-.7741.12114-1.1454.24995-.0987.03513-.2014.06247-.3041.08584-.1935.04689-.2883-.12114-.1856-.26558.1264-.17966.1343-.16405.5924-.46866.0237-.01558.0474-.03133.0869-.05867h-.0987c-.0237 0-.0474.00865-.0751.01211-.7622.12892-1.2125.60536-1.9313 1.15607-.4108.3163-.5451.1484-.474-.0196.0553-.1367.1304-.26166.2015-.39054.0395-.07026.0908-.13273.1382-.1992-.0079-.00865-.0197-.01211-.0276-.01955-1.0664.71469-1.8445 1.65599-2.279 2.86279.0119.0121.0277.0233.0395.0351.0119-.0234.0198-.0469.0356-.0665.4107-.4725.9005-.8514 1.4455-1.1638.7189-.414 1.4811-.7147 2.3184-.7889.1699-.0156.3437-.0035.5174-.0035-.071.0274-.1382.0352-.2093.0429-.7307.0938-1.4021.3516-2.034.7226-1.1928.6991-2.1526 1.6481-2.9662 2.7495-.0119.0155-.0157.0351-.0276.0507.5727.207.9479.6756 1.4258.9998.0078-.0035.0119-.0087.0157-.0156l.0474-.1054c.4819-1.0506 1.0664-2.0426 1.8445-2.9096.6596-.7342 1.5008-.9881 2.4685-.7811.233.0507.4502.1718.6793.2656.0909-.0547.2014-.125.316-.1836.3317-.168.6872-.2734 1.0545-.3515.5806-.1211 1.1652-.1913 1.7576-.0507v-.0195c-.0198-.0156-.0473-.0319-.0671-.0553zm-9.2974 6.8542c-1.5561-1.2888-.9005-.7616-1.6864-1.3904-.0316.0352 0-.0086-.0751.1172-.4423.7459-1.0071 1.3786-1.7378 1.859-.40681.2656-.84917.4609-1.34682.4609-.85312 0-1.50875-.3711-1.95111-1.0858-.47395-.7615-.52529-1.5895-.32386-2.4448.30806-1.3201 1.18883-2.1559 1.52454-2.5113-.73857-.2421-1.30337.0665-1.83261.5429.0316-.5429.16983-1.0233.46605-1.4568-.95975.414-1.81287.9764-2.55934 1.7145-.0119-.2265.21327-1.7067.22117-1.7457.0119-.1054-.02369-.207-.11849-.289-.95581.9646-1.75758 2.023-2.21573 3.3041.29227-.2305.58849-.4453.93211-.6327-.32782.8709-.77413 2.0621-.30807 3.9484.18168.7421.47 1.4373.95185 2.0426.11454.1445.24883.2695.37521.4023.00788-.0087.01575-.0121.0237-.0196-.0553-.2734-.08689-.5506-.05924-.8553.08689.125.15404.2344.23303.3359.49765.6249 1.13354 1.0701 1.86421 1.3904.9874.4413 2.01825.5194 3.07675.3358 2.16835-.3788 3.58225-1.898 4.58155-3.8586.0395-.0703.0237-.1131-.0356-.164zm6.7934-1.8122c-.3752-.1211-.8768-.164-1.1336-.1131.391.1562.5569.2577.7426.4686.4976.5624.4107 1.3552-.2133 1.781-.4621.3163-.9835.41-1.5364.3554-.0474-.0035-.0909-.0156-.1185-.0234.1106-.1445.237-.2734.3199-.4218.3713-.6561.2133-1.6442-.3436-2.191-.0829-.082-.1817-.1523-.2765-.2304-.0119.0507-.004.082.004.1093.1659.6483-.3199 1.2654-.9795 1.242-.3001-.0121-.549-.1485-.7741-.332-.7702-.6288-1.5443-1.2537-2.3105-1.8864-.233-.1913-.4937-.3163-.7939-.3397-.1817-.0156-.3673-.0234-.549-.0352-.233-.0155-.3475-.1093-.4107-.328-.0356-.1328-.0593-.2656-.0869-.3984-.0593-.3164-.2449-.5077-.5648-.5546-.1738-.0273-.3515-.0391-.5253-.0587-.5135-.0546-.782-.289-.89262-.7928-.19748.4296-.06319.8749.28832 1.1678.1777.1484.3673.2851.545.4374.1817.1485.2923.3398.3121.578.0157.1836.0316.371.0711.5507.0868.414.3515.7186.6714.9803.6517.535 1.3034 1.0662 1.955 1.6052.707.5858.549 1.281.5135 2.1871-.0356.8943.4818 1.6754 1.3231 1.9996.0395.0156.079.0233.1422.0429-.6201-.7108-.3989-1.7223.0276-2.0426.0119.0858.0158.1679.0356.25.3713 1.7223 1.7931 2.5073 3.3572 2.2222.6319-.1132 1.2085-.3476 1.6943-.7733.079-.0702.1462-.1601.2331-.2538-.7623.1796-1.414.0034-2.0104-.414.0277-.0121.0514-.0121.0751-.0121.8412.0702 1.6035-.1328 2.2512-.6796.7702-.6483 1.0506-1.6755.6873-2.5776-.3279-.7851-.9322-1.2612-1.73-1.519zm-15.37585-6.71356c-.20933-.35932-.52135-.60927-.87287-.83189.5411-.01956 1.0506.00865 1.56405.14449-.27647-.47647-.33572-.96467-.19748-1.51145.20933.46477.54109.78502.93211 1.0467.77807.51552 1.41.76547 1.84446 1.17946.13428.12892.24883.2773.37916.42571-.0316-.08202-.0553-.16007-.08688-.23434-.19748-.41398-.51345-.72642-.89262-.97637-.07108-.0469-.11058-.0976-.13427-.17576-.13034-.48819-.1185-.98028-.02765-1.46847.03949-.2148.11058-.42571.17773-.63661.0316-.09379.09084-.17965.15799-.25777.02369.26949 0 .99593.77412 1.79655.42656.44132.88471.85532 1.3389 1.27711.3555.33197.7228.65223 1.0072 1.04667.0434.06247.0869.12893.1501.18353-.1975-.50768-.5609-.9412-.9559-1.32003-.37912-.36321-.76618-.71862-1.15324-1.07011-.13034-.11716-.18168-.26167-.20143-.4257-.04739-.40618 0-.80455.16984-1.17947.01976-.03911.04345-.07805.07504-.12892.01976.16404.02369.30854.0553.45303.18958.90219.80572 1.41771 1.94719 2.48002.3949.36712.7622.74987 1.0111 1.23418.1895.3632.2883.742.2251 1.156-.004.0234.0198.0665.0434.078.2449.1016.395.2695.3832.5585.3041-.1015.4937-.3124.6477-.5663.1659.789-.3594 1.9645-1.0743 2.2926.0157-.1758.1975-.9139-.6517-1.0818-.2686-.0507-.5055-.0507-.9044-.0821.1856-.3515.4107-.8045.0197-.8748-.98346-.1797-2.0854.0742-2.28288.1796.32387.0156.64379.0392.92816.129-.07899.2538-.15799.496-.22908.7381-.07504.2539.08294.5702.36732.3749.04739-.0351.09084-.0742.13034-.1053-.12243.6991-.11454.6209-.11058.7147.0119.3983.37521.3046.62012.2851-.0988.4608-1.16517 1.0662-1.79316 1.0076.27647-.1836.5016-.4023.62799-.6991-.25672.0313-.5095.0625-.75833.0938l-.0119-.0351c.18564-.1327.31597-.3047.40286-.5116.34362-.8241-.14218-1.4841-.9874-1.5583-.35941-.0314-.70303.0313-1.02294.2148.24487-.6093.67933-1.0389 1.28757-1.3474-.60034-.1681-.35152-.1054-.97161-.2461.57665-.3632 1.19279-.5155 1.83657-.5702-.20538-.1249-1.89976-.1407-2.77262.8163.31202.0546.61219.1093.91631.164-.94001.2734-1.73783.7694-2.46456 1.3904.04345-.1875.10665-.3711.13034-.5585.0237-.1758.03159-.3593.00403-.5312-.05924-.3671-.35152-.5897-.77808-.6366-.31201-.0351-.61613.0035-.92025.0507-.03555.0035-.06715.0121-.11454 0 .62404-.578 1.42186-.8475 2.09724-1.30832.23698-.17575.26851-.32028.11843-.58194zm5.07125 1.04666c.1304.6249.4977.9959.94.9491-.1816-.4414-.4779-.7616-.94-.9491z" fill="#fff"/></svg>