<svg fill="none" height="24" viewBox="0 0 24 24" width="24" xmlns="http://www.w3.org/2000/svg"><g fill="#fff"><path d="m8.5 2c-1.933 0-3.5 1.567-3.5 3.5s1.567 3.5 3.5 3.5h3v-7z" fill-opacity=".7"/><path d="m12.5 2v7h3c1.933 0 3.5-1.567 3.5-3.5s-1.567-3.5-3.5-3.5z"/><path d="m5 12c0-1.933 1.567-3.5 3.5-3.5h3v7h-3c-1.933 0-3.5-1.567-3.5-3.5z" fill-opacity=".8"/><path d="m12.5 8.5h3c1.933 0 3.5 1.567 3.5 3.5s-1.567 3.5-3.5 3.5-3-1.567-3-3.5z"/><path d="m5 18.5c0-1.933 1.567-3.5 3.5-3.5h3v3.5c0 1.933-1.567 3.5-3.5 3.5s-3-1.567-3-3.5z" fill-opacity=".6"/></g></svg>