<svg width="32" height="32" viewBox="0 0 32 32" fill="none" xmlns="http://www.w3.org/2000/svg">
<path fill-rule="evenodd" clip-rule="evenodd" d="M23 9H17C15.1362 9 13.5701 10.2748 13.126 12H15C18.866 12 22 15.134 22 19C22 22.866 18.866 26 15 26H9C5.13401 26 2 22.866 2 19C2 15.5635 4.47627 12.7055 7.74178 12.1128C7.71415 12.4048 7.70001 12.7007 7.70001 13C7.70001 13.7364 7.78561 14.4529 7.94741 15.1399C6.24893 15.602 5 17.1551 5 19C5 21.2091 6.79086 23 9 23H15C16.8638 23 18.4299 21.7252 18.874 20H17C13.134 20 10 16.866 10 13C10 9.13401 13.134 6 17 6H23C26.866 6 30 9.13401 30 13C30 16.5431 27.3676 19.4714 23.9519 19.9358C23.9837 19.6282 24 19.316 24 19C24 18.2869 23.9171 17.5931 23.7603 16.9278C25.6058 16.5727 27 14.9492 27 13C27 10.7909 25.2091 9 23 9ZM18.4649 17C17.7733 15.8044 16.4806 15 15 15H13.5351C14.2267 16.1956 15.5194 17 17 17H18.4649Z" fill="white"/>
</svg>
