<svg fill="none" height="24" viewBox="0 0 24 24" width="24" xmlns="http://www.w3.org/2000/svg"><g fill="#fff"><path d="m20.0105 8.10891 1.1747-1.92133c.288-.472.14-1.08667-.3307-1.37467-.472-.28666-1.0866-.14-1.3746.33067l-1.2094 1.976c-.904-.44133-1.8506-.784-2.832-1.02533l.444-2.20667c.1094-.54133-.2426-1.06933-.7826-1.17733-.54-.104-1.0694.24133-1.1774.78266l-.452 2.24667c-.4853-.04933-.976-.076-1.4706-.076-.4947 0-.9854.02667-1.4707.076l-.452-2.24667c-.10932-.54133-.63999-.888-1.17732-.78266-.54133.10933-.892.636-.78267 1.17733l.444 2.20667c-.98133.24133-1.928.584-2.832 1.02533l-1.20933-1.976c-.28667-.47067-.90267-.61733-1.37467-.33067-.47066.288-.61866.904-.33066 1.37467l1.17466 1.92133c-.792.536-1.53866 1.156-2.224 1.856-.38666.39329-.38 1.02799.01467 1.41469.39333.3866 1.02667.38 1.41467-.0147 2.33866-2.38532 5.46666-3.69865 8.80665-3.69865 3.34 0 6.468 1.31333 8.8067 3.69865.196.2.4546.3.7146.3.252 0 .5054-.0947.7-.2853.3947-.3867.4014-1.02.0147-1.41469-.6867-.7-1.432-1.32-2.224-1.856z"/><path d="m11.9999 18.6654c2.5773 0 4.6667-2.0894 4.6667-4.6667s-2.0894-4.66667-4.6667-4.66667c-2.57731 0-4.66665 2.08937-4.66665 4.66667s2.08934 4.6667 4.66665 4.6667z"/></g></svg>