<svg fill="none" height="32" viewBox="0 0 32 32" width="32" xmlns="http://www.w3.org/2000/svg"><g fill="#fff"><path d="m12 5c0-1.65685 1.3431-3 3-3h2c1.6569 0 3 1.34315 3 3h6.5c.8284 0 1.5.67157 1.5 1.5s-.6716 1.5-1.5 1.5h-21c-.82843 0-1.5-.67157-1.5-1.5s.67157-1.5 1.5-1.5z"/><path clip-rule="evenodd" d="m6 10h20v16c0 2.2091-1.7909 4-4 4h-12c-2.20914 0-4-1.7909-4-4zm7 6c-.5523 0-1 .4477-1 1v6c0 .5523.4477 1 1 1s1-.4477 1-1v-6c0-.5523-.4477-1-1-1zm5 1c0-.5523.4477-1 1-1s1 .4477 1 1v6c0 .5523-.4477 1-1 1s-1-.4477-1-1z" fill-rule="evenodd"/></g></svg>