<svg width="32" height="32" viewBox="0 0 32 32" fill="none" xmlns="http://www.w3.org/2000/svg">
<path fill-rule="evenodd" clip-rule="evenodd" d="M16 16C21.5228 16 26 11.5228 26 6V4C26 2.89543 25.1046 2 24 2H8C6.89543 2 6 2.89543 6 4V6C6 11.5228 10.4772 16 16 16ZM16 13C12.829 13 10.1504 10.8915 9.28988 8H22.7101C21.8496 10.8915 19.171 13 16 13Z" fill="white"/>
<path d="M16 16C10.4772 16 6 20.4771 6 26V28C6 29.1046 6.89543 30 8 30H24C25.1046 30 26 29.1046 26 28V26C26 20.4772 21.5228 16 16 16Z" fill="white"/>
</svg>
