<svg fill="none" height="24" viewBox="0 0 24 24" width="24" xmlns="http://www.w3.org/2000/svg"><path d="m22.2213 8.97713c-.3933-.38667-1.0266-.38-1.4146.01466-2.3387 2.38531-5.4667 3.69871-8.8067 3.69871-3.34001 0-6.46801-1.3134-8.80667-3.69871-.38667-.39333-1.02-.4-1.41467-.01466-.39467.38666-.40133 1.02-.01467 1.41467.68667.7 1.432 1.32 2.22534 1.8573l-1.17467 1.9214c-.288.4706-.14 1.0866.332 1.3746.16267.1.34267.1467.52133.1467.336 0 .66534-.1693.85334-.4787l1.208-1.976c.904.4414 1.85066.784 2.832 1.0254l-.444 2.2066c-.10934.5414.24266 1.0694.78266 1.1774.06667.0133.13334.02.19867.02.46667 0 .884-.328.97864-.8027l.452-2.2467c.4854.0494.976.076 1.4707.076s.9853-.0266 1.4707-.076l.452 2.2467c.096.4747.5133.8027.9786.8027.0654 0 .132-.0067.1987-.02.5413-.1094.892-.636.7827-1.1774l-.444-2.2066c.9813-.2414 1.928-.584 2.832-1.0254l1.208 1.976c.188.308.5173.4787.8533.4787.1787 0 .3587-.048.5213-.1467.472-.288.62-.904.332-1.3746l-1.1746-1.9214c.792-.5373 1.5386-1.156 2.2253-1.8573.3867-.39334.38-1.02801-.0147-1.41467z" fill="#fff"/></svg>