<svg fill="none" height="32" viewBox="0 0 32 32" width="32" xmlns="http://www.w3.org/2000/svg"><g fill="#fff"><path clip-rule="evenodd" d="m14.2117 3.1459c-1.5279-1.52787-4.0051-1.52787-5.53292 0l-5.53288 5.53288c-1.52787 1.52782-1.52787 4.00502 0 5.53292l5.53288 5.5329c1.52782 1.5278 4.00502 1.5278 5.53292 0l5.5329-5.5329c1.5278-1.5279 1.5278-4.0051 0-5.53292zm-4.84131 2.07483c.38197-.38197 1.00121-.38197 1.38321 0s.382 1.00125 0 1.38322l-4.14965 4.14965c-.38197.382-1.00125.382-1.38322 0s-.38197-1.00124 0-1.38321z" fill-rule="evenodd"/><path d="m16.2142 20.4744 4.3425-4.3426 8.825 8.825c.8245.8245.8245 2.1612 0 2.9856l-1.4928 1.4929c-.8244.8244-2.1611.8244-2.9856 0l-.0092-.0093c-.1584-.1583-.2474-.3731-.2474-.5971v-3.0276c0-.4664-.378-.8445-.8444-.8445h-3.0276c-.224 0-.4388-.0889-.5972-.2473l-.9981-.9981c-.1584-.1584-.2473-.3732-.2473-.5972v-1.7913c0-.4664-.3781-.8445-.8445-.8445z"/></g></svg>