<svg fill="none" height="24" viewBox="0 0 24 24" width="24" xmlns="http://www.w3.org/2000/svg"><g fill="#fff"><path d="m12.0405 16.2902c-.3907-.3907-1.0235-.3907-1.414 0-.3906.3906-.3907 1.0234 0 1.414l1.6101 1.61c-.0795.0026-.1563.0162-.2364.0162-4.04361 0-7.33334-3.2897-7.33334-7.3333 0-2.01041.79361-3.88344 2.23441-5.27411.3972-.38346.40827-1.01632.0248-1.41405-.3828-.39653-1.01626-.40821-1.414-.02475-1.83466 1.7708-2.84508 4.1549-2.84508 6.71291 0 5.0137 3.97627 9.1048 8.93921 9.3132l-.9796.9799c-.3907.3906-.3907 1.0234 0 1.414.1953.1953.4512.2929.7071.2929.2558 0 .5117-.0976.707-.2929l3-3c.3906-.3907.3906-1.0235 0-1.414z"/><path d="m12.3941 2.68683.9796-.97998c.3906-.39067.3906-1.023366 0-1.4139-.3906-.3905335-1.0234-.3906668-1.414 0l-2.99995 3c-.39067.39066-.39067 1.02337 0 1.4139l2.99995 3c.1954.19534.4512.29296.7071.29296s.5117-.09762.7071-.29296c.3907-.39066.3907-1.02337 0-1.4139l-1.6104-1.61068c.0792-.00267.1572-.01562.2368-.01562 4.0435 0 7.3332 3.28974 7.3332 7.33335 0 2-.7949 3.8731-2.2376 5.2741-.3965.3848-.4056 1.0176-.0208 1.414.196.2019.4564.3034.7175.3034.2513 0 .5027-.0938.6967-.2826 1.834-1.7805 2.8444-4.1634 2.8444-6.7089 0-5.01375-3.9767-9.10477-8.9396-9.31317z"/></g></svg>