<svg fill="none" height="24" viewBox="0 0 24 24" width="24" xmlns="http://www.w3.org/2000/svg"><path d="m22 8.64c-.07 1.63-1.35 3.88-3.83 6.75-2.57 3-4.77 4.5-6.61 4.5-1.15 0-2.13-1.08-2.94-3.24l-1.49-5.66c-.63-2.16-1.31-3.24-2.04-3.24-.13 0-.64.31-1.53.93l-.87-1.13c.98-.87 1.95-1.74 2.9-2.62 1.32-1.15 2.31-1.75 2.97-1.8 1.54-.15 2.5.92 2.89 3.2.41 2.47.7 3.91.87 4.32.46 2.03.96 3.04 1.51 3.04.44 0 1.1-.72 1.98-2.17s1.35-2.55 1.41-3.3c.12-1.19-.41-1.78-1.58-1.78-.55 0-1.12.12-1.71.37 1.06-3.44 3.04-5.12 5.94-5.03 2.14.06 3.09 1.4 2.94 3.94z" fill="#fff"/></svg>