<svg width="32" height="32" viewBox="0 0 32 32" fill="none" xmlns="http://www.w3.org/2000/svg">
<path d="M19.7559 4.03711C21.3276 3.93082 21.7508 4.01837 22.7266 4.77246L26.9287 7.72754C26.9669 7.76574 27.0048 7.76636 27.043 7.80469C27.5245 8.14621 27.7534 8.31886 27.8398 8.60449C27.8696 8.70477 27.8838 8.81861 27.8838 8.95703V25.3467C27.8838 26.383 27.501 26.9974 26.2021 27.0742L10.8447 27.9951C9.85165 28.0335 9.39306 27.9181 8.89648 27.2656L5.92871 23.4004L5.80273 23.2344C5.78715 23.2145 5.77289 23.1934 5.75781 23.1738C5.21802 22.4386 5 21.9133 5 21.2783V6.69336C5 5.84893 5.38249 5.11877 6.45215 5.04199L19.6699 4.04492C19.6989 4.04214 19.7276 4.03971 19.7559 4.03711ZM25.5527 9.49316L10.4629 10.376C9.9282 10.4144 9.73736 10.683 9.7373 11.2969V25.2305C9.73745 25.9595 10.1198 26.2662 10.9219 26.1895L25.3623 25.3447C26.1643 25.3062 26.2793 24.8074 26.2793 24.1934V10.376C26.2793 9.76187 26.0494 9.45478 25.5527 9.49316ZM23.9863 12.0645C24.0627 12.4867 23.9866 12.9089 23.5664 12.9473L22.8789 13.1016V23.3877C22.2677 23.7331 21.7328 23.8867 21.2744 23.8867C20.5486 23.8867 20.3572 23.6566 19.7842 22.9658L15.2002 15.75V22.6973L16.6514 23.042C16.6514 23.042 16.6518 23.8867 15.5059 23.8867L12.2969 24.0781C12.2207 23.886 12.2971 23.4263 12.6025 23.3496L13.4424 23.1191V13.9072L12.2969 13.792C12.2205 13.3699 12.4494 12.7554 13.0986 12.7168L16.5371 12.4873L21.2744 19.7793V13.3311L20.0518 13.1777C19.9755 12.679 20.3191 12.2954 20.7773 12.2568L23.9863 12.0645ZM22.2676 6C21.8474 5.65463 21.3125 5.3091 20.2432 5.38574L7.52148 6.30762C7.02489 6.346 6.9487 6.57568 7.13965 6.76758L8.93457 8.18848C9.66033 8.80252 9.92811 8.76423 11.1885 8.6875H11.3418L24.4834 7.88086C24.7889 7.88085 24.56 7.61282 24.4453 7.57422L22.2676 6Z" fill="white"/>
</svg>
