<svg fill="none" height="24" viewBox="0 0 24 24" width="24" xmlns="http://www.w3.org/2000/svg"><path d="m14.0879 3.02637c1.1611-.07746 1.4789-.00917 2.206.55273l3.1524 2.2168c.0286.02867.0573.02886.0859.05762.36.25532.5305.38559.5957.59863.0228.07576.0342.16173.0342.2666v12.29195c0 .7772-.2866 1.2374-1.2607 1.295l-11.51761.6914c-.74495.0288-1.08945-.0576-1.46191-.5469l-2.18653-2.8486-.13379-.1758c-.01161-.0148-.02196-.0303-.0332-.0449-.40496-.5516-.56836-.9456-.56836-1.4219v-10.93849c0-.6332.286-1.18053 1.08789-1.23828l9.91411-.74805c.0291-.00279.0578-.00526.0859-.00781zm-6.99122 4.75586c-.40103.02882-.54395.23085-.54395.6914v10.44927c0 .5469.28615.7772.8877.7197l10.83107-.6328c.6014-.0289.6875-.4038.6875-.8643v-10.36327c-.0001-.46047-.1725-.6909-.5449-.66211zm10.14262 1.2666c.0572.31654.0004.63314-.3145.66211l-.5156.11523v7.71483c-.4585.2591-.8603.374-1.2041.374-.5442 0-.6875-.1723-1.1172-.6904l-3.4385-5.4121v5.2109l1.0889.2588c-.0001.0086-.0057.6328-.8594.6328l-2.40722.1446c-.05728-.1439.00047-.4892.22949-.5469l.63086-.1729v-6.9091l-.86035-.086c-.0573-.3166.11544-.77782.60254-.80661l2.57808-.17286 3.5528 5.46977v-4.83598l-.917-.11523c-.0572-.37417.2011-.66164.5449-.69043zm-2.8077-5.00879-9.54098.69141c-.37244.02879-.42937.2008-.28613.34472l1.34668 1.06543c.54418.46035.74506.43157 1.69043.37402h.11426l9.85644-.60449c.229-.0001.0566-.20168-.0293-.23047l-1.6328-1.17968c-.3152-.25909-.7163-.5185-1.5186-.46094z" fill="#fff"/></svg>