<svg fill="none" height="24" viewBox="0 0 24 24" width="24" xmlns="http://www.w3.org/2000/svg"><g stroke="#fff" stroke-linecap="round" stroke-linejoin="round" stroke-width="2"><path d="m7.66667 11.0013c1.4728 0 2.66663-1.19333 2.66663-2.66666 0-1.47334-1.19383-2.66667-2.66663-2.66667s-2.66667 1.19333-2.66667 2.66667c0 1.47333 1.19387 2.66666 2.66667 2.66666z"/><path d="m12.812 20.1639c.6973-.2333 1.1067-.992.848-1.6786-.9133-2.424-3.248-4.1494-5.99196-4.1494-2.744 0-5.07867 1.7254-5.992 4.1494-.25867.688.15066 1.4466.848 1.6786 1.28266.428 3.04133.8374 5.14533.8374s3.86133-.4094 5.14263-.8374z"/><path d="m15.9999 7.66927c1.4728 0 2.6667-1.19333 2.6667-2.66667 0-1.47333-1.1939-2.66666-2.6667-2.66666s-2.6666 1.19333-2.6666 2.66666c0 1.47334 1.1938 2.66667 2.6666 2.66667z"/><path d="m17.5387 17.585c1.4245-.1371 2.6529-.4346 3.6053-.753.6973-.2333 1.1067-.9921.848-1.6786-.9133-2.4242-3.248-4.1495-5.992-4.1495-1.1189 0-2.1613.3008-3.0762.8053"/></g></svg>