<svg fill="none" height="24" viewBox="0 0 24 24" width="24" xmlns="http://www.w3.org/2000/svg"><g clip-rule="evenodd" fill="#fff" fill-rule="evenodd"><path d="m12.0423 8.72303c.2588.48791.073 1.09322-.4149 1.35197-.3315.1759-.6311.4034-.8962.6685-1.45084 1.4508-1.45084 3.8017 0 5.2525l2.8999 2.9c1.4508 1.4508 3.8018 1.4508 5.2526 0 1.4506-1.4508 1.4641-3.8151.0133-5.2659l-1.0165-1.0165c-.3906-.3905-.3906-1.0236 0-1.4142.3905-.3905 1.0236-.3905 1.4141 0l1.0165 1.0166c2.2319 2.2319 2.2319 5.8489 0 8.0808-2.2318 2.2319-5.8624 2.2452-8.0941.0133l-2.90004-2.9c-2.23186-2.2318-2.23186-5.8489 0-8.0808.4108-.41227.88274-.76093 1.37334-1.02112.4879-.25878 1.0932-.07305 1.352.41485z"/><path d="m3.70503 3.68953c2.23185-2.23187 5.84901-2.23187 8.08087 0l2.9 2.9c2.2318 2.23185 2.2318 5.84897 0 8.08087-.4056.4056-.8662.7521-1.3733 1.0212-.4879.2588-1.0933.073-1.352-.415-.2588-.4878-.0731-1.0932.4148-1.352.3315-.1757.6313-.4034.8963-.6684 1.4508-1.4508 1.4508-3.80166 0-5.25246l-2.9-2.9c-1.45082-1.45081-3.80166-1.45081-5.25246 0-1.43655 1.43655-1.45546 3.82367-.01334 5.26576l1.01654 1.0166c.39052.3905.39052 1.0236 0 1.4142-.39053.3905-1.02369.3905-1.41421 0l-1.01654-1.0166c-2.21286-2.21283-2.19397-5.88687.01334-8.09417z"/></g></svg>